PathFileType	4	(X/Y/Z)	Subject_003_static.trc	
DataRate	CameraRate	NumFrames	NumMarkers	Units	OrigDataRate	OrigDataStartFrame	OrigNumFrames	
100.00	100.00	10	24	mm	100.00	36	140	
Frame#	Time	LASI			RASI			LPSI			RPSI			LTHI			LKNE			LMKNE			LTIB			LANK			LHEE			LTOE			RTHI			RKNE			RMKNE			RTIB			RANK			RHEE			RTOE			LFEO			LFEP			LTIO			RFEO			RFEP			RTIO			
		X1	Y1	Z1	X2	Y2	Z2	X3	Y3	Z3	X4	Y4	Z4	X5	Y5	Z5	X6	Y6	Z6	X7	Y7	Z7	X8	Y8	Z8	X9	Y9	Z9	X10	Y10	Z10	X11	Y11	Z11	X12	Y12	Z12	X13	Y13	Z13	X14	Y14	Z14	X15	Y15	Z15	X16	Y16	Z16	X17	Y17	Z17	X18	Y18	Z18	X19	Y19	Z19	X20	Y20	Z20	X21	Y21	Z21	X22	Y22	Z22	X23	Y23	Z23	X24	Y24	Z24	

36	0.350	-834.07678	595.68457	17.21535	-775.73376	584.92700	186.06050	-923.17377	635.54150	111.22313	-900.38782	629.06464	167.08527	-906.46222	394.10181	-24.56674	-888.77594	305.07550	31.56551	-869.73029	301.70972	128.15164	-881.22723	147.79437	-16.50354	-881.30701	48.76332	39.54581	-931.07935	36.58180	64.70393	-787.29773	34.34945	75.54187	-805.58942	392.04343	275.59286	-826.52698	296.75278	241.67787	-871.64270	278.01666	150.43770	-882.77930	177.69734	339.08630	-966.38983	118.97216	348.41656	-1006.55255	158.74275	336.51721	-984.58826	28.48737	332.69946	-874.06372	309.01913	74.97054	-877.66974	553.41846	53.98748	-880.08649	48.31186	71.51934	-844.19519	294.14920	198.74414	-833.39368	545.38794	179.06339	-988.70746	120.42147	324.83536 
37	0.360	-834.19513	595.66278	17.20121	-775.90637	584.83698	186.04552	-923.36060	635.47742	111.23048	-900.58282	629.01398	167.09428	-906.64203	393.98517	-24.49719	-888.83289	305.02734	31.57360	-869.78967	301.70978	128.15469	-881.24847	147.74031	-16.47755	-881.31293	48.73842	39.53319	-931.06696	36.52731	64.71106	-787.27246	34.30695	75.54568	-805.59314	391.99506	275.53885	-826.56500	296.68887	241.59995	-871.66113	277.93295	150.40634	-882.84540	177.79150	339.07123	-966.36310	118.95046	348.37988	-1006.54889	158.72792	336.51508	-984.46222	28.51839	332.63354	-874.04749	308.98468	74.95251	-877.80084	553.38159	53.93633	-880.08105	48.28725	71.50629	-844.28229	294.08582	198.68639	-833.56152	545.29993	179.02191	-988.65271	120.33731	324.76840 
38	0.370	-834.34222	595.66150	17.18320	-776.06195	584.82080	185.98515	-923.51959	635.41827	111.22716	-900.71210	628.96698	167.16185	-906.76074	393.97827	-24.50349	-888.88617	304.99744	31.58147	-869.80560	301.69672	128.12029	-881.26392	147.71884	-16.48593	-881.29010	48.70375	39.58249	-931.03473	36.48229	64.73017	-787.26099	34.26748	75.57328	-805.60809	391.91513	275.46317	-826.58252	296.66077	241.54225	-871.72455	277.87817	150.35277	-882.71735	177.59871	338.97726	-966.37091	118.93346	348.41104	-1006.55780	158.76569	336.51611	-984.58453	28.38785	332.61914	-874.08014	308.96912	74.95203	-877.94128	553.36035	53.89014	-880.05072	48.25881	71.55537	-844.33795	294.05371	198.64471	-833.69812	545.26611	178.97360	-988.72900	120.41251	324.87003 
39	0.380	-834.49316	595.65381	17.15628	-776.28461	584.80151	185.95032	-923.74194	635.43323	111.21307	-900.89941	628.94647	167.11533	-906.88672	394.14407	-24.68849	-888.95300	304.99243	31.59321	-869.80774	301.52588	127.92609	-881.28516	147.69879	-16.45958	-881.28711	48.67896	39.61925	-931.05347	36.47026	64.73725	-787.27148	34.27301	75.58836	-805.63562	391.85474	275.51031	-826.58392	296.63846	241.45964	-871.66327	277.80487	150.29608	-882.69843	177.60945	338.89471	-966.34943	118.95935	348.38919	-1006.54437	158.76773	336.47903	-984.61871	28.42846	332.58817	-874.16925	308.98325	74.96960	-878.11346	553.35474	53.83092	-880.05255	48.23698	71.59238	-844.34589	294.02335	198.56529	-833.91620	545.25049	178.92993	-988.71674	120.44147	324.85712 
40	0.390	-834.77716	595.68591	17.14647	-776.44843	584.87305	185.85092	-923.86749	635.40234	111.24181	-901.04596	628.92889	167.17932	-906.91669	393.99384	-24.82515	-889.04443	305.01642	31.59634	-869.92413	301.71500	128.15923	-881.35590	147.65474	-16.42682	-881.32489	48.68761	39.60659	-931.06970	36.45120	64.77716	-787.28619	34.23542	75.62614	-805.65436	391.83429	275.36380	-826.59888	296.64059	241.42619	-871.85944	277.76694	150.29788	-882.73590	177.61571	338.89792	-966.32568	119.02554	348.48099	-1006.53693	158.77332	336.47818	-984.46912	28.55166	332.52298	-874.36237	309.01770	75.00632	-878.35693	553.36975	53.83459	-880.10242	48.24062	71.58011	-844.42065	294.02185	198.55692	-834.05896	545.29303	178.89978	-988.71283	120.51250	324.96817 
41	0.400	-835.06543	595.66986	17.06035	-776.61176	584.87720	185.81024	-924.11755	635.40967	111.22198	-901.25092	628.91302	167.19104	-906.99829	393.94495	-24.85632	-889.12463	304.98669	31.56033	-869.93762	301.46530	127.97082	-881.37054	147.61717	-16.44559	-881.34705	48.67816	39.57622	-931.04187	36.39323	64.71328	-787.28467	34.21606	75.58411	-805.71783	391.76425	275.29614	-826.64026	296.61118	241.33929	-871.86523	277.68332	150.15875	-882.67621	177.58560	338.78702	-966.29187	118.98971	348.43939	-1006.51385	158.74144	336.45251	-984.59937	28.39155	332.57874	-874.48138	308.99503	74.98277	-878.60663	553.35132	53.81734	-880.14490	48.23120	71.55051	-844.48169	293.99222	198.47821	-834.23596	545.29333	178.85799	-988.69879	120.49003	324.94620 
42	0.410	-835.25140	595.68524	17.01302	-776.72162	584.86188	185.76862	-924.31122	635.33319	111.33174	-901.46747	628.89008	167.24234	-906.97229	393.86737	-24.91496	-889.19220	304.92184	31.57667	-870.10034	301.55801	128.16301	-881.42590	147.58881	-16.41965	-881.32355	48.63344	39.61945	-930.99652	36.29065	64.80024	-787.29883	34.17091	75.60854	-805.75897	391.68896	275.15527	-826.68848	296.54141	241.24428	-871.94019	277.52222	150.13562	-882.66211	177.54077	338.77200	-966.32477	118.92203	348.40179	-1006.49188	158.74414	336.49847	-984.57782	28.45211	332.61453	-874.63470	308.94366	75.02668	-878.75122	553.32874	53.78532	-880.11578	48.18708	71.59354	-844.56268	293.92932	198.39641	-834.33191	545.25006	178.80734	-988.73505	120.41491	324.91132 
43	0.420	-835.43591	595.72107	16.93156	-776.83063	584.80804	185.68617	-924.49878	635.29852	111.26587	-901.67474	628.82544	167.17444	-907.24957	394.01691	-24.74200	-889.26379	304.92950	31.53070	-870.15070	301.56070	128.13629	-881.42285	147.57976	-16.46472	-881.38123	48.62522	39.53646	-931.04358	36.30705	64.73939	-787.30298	34.16840	75.58718	-805.89844	391.62735	275.12473	-826.68958	296.50092	241.11983	-871.88416	277.45419	149.95062	-882.64783	177.49173	338.68439	-966.32306	118.92757	348.33749	-1006.50732	158.73175	336.43579	-984.57349	28.37233	332.58453	-874.55371	308.96017	74.92850	-878.90424	553.32727	53.70720	-880.17670	48.18019	71.51069	-844.47784	293.87921	198.23679	-834.43622	545.18384	178.70764	-988.73737	120.42512	324.85117 
44	0.430	-835.60461	595.72772	16.91716	-777.01410	584.75537	185.66577	-924.66644	635.28723	111.33202	-901.80402	628.79724	167.23248	-907.25989	393.89191	-24.86127	-889.35406	304.96185	31.56458	-870.18756	301.55078	128.13609	-881.48877	147.59468	-16.44545	-881.39508	48.64116	39.55244	-931.03186	36.32920	64.79303	-787.31110	34.20248	75.61147	-805.97363	391.61002	275.08240	-826.69281	296.49081	241.06837	-871.94885	277.42902	149.91716	-882.65808	177.55357	338.65997	-966.27643	118.92439	348.33313	-1006.47021	158.76440	336.46338	-984.57648	28.40030	332.61340	-874.73975	309.01117	74.99297	-879.08362	553.33075	53.67431	-880.19696	48.19117	71.52683	-844.47839	293.85876	198.18486	-834.62488	545.14282	178.67516	-988.67773	120.38817	324.83228 
45	0.440	-835.82037	595.69952	16.92828	-777.22217	584.71606	185.61920	-924.90802	635.31140	111.25604	-901.93121	628.75049	167.16525	-907.52795	393.69690	-24.49288	-889.40839	304.94873	31.51950	-870.22144	301.58652	128.13185	-881.52478	147.60924	-16.46096	-881.37115	48.61688	39.55463	-931.02765	36.34873	64.72504	-787.29761	34.21716	75.57508	-806.03302	391.59564	275.00815	-826.69733	296.49225	240.99115	-871.89923	277.39685	149.76328	-882.62494	177.41684	338.52975	-966.31421	118.96604	348.29065	-1006.46490	158.74869	336.42413	-984.55841	28.31293	332.63409	-874.62610	308.99969	74.89082	-879.31372	553.31683	53.66896	-880.12891	48.17838	71.52751	-844.50269	293.85773	198.11598	-834.83679	545.11804	178.66264	-988.76404	120.50613	324.84103 
